<?xml version="1.0" encoding="utf-8"?>
<!-- Generator: Adobe Illustrator 23.0.6, SVG Export Plug-In . SVG Version: 6.00 Build 0)  -->
<svg version="1.1" id="a75d69e6-d07c-4db3-9c83-72b2470e5561"
	 xmlns="http://www.w3.org/2000/svg" xmlns:xlink="http://www.w3.org/1999/xlink" x="0px" y="0px" viewBox="0 0 1108 731.2"
	 style="enable-background:new 0 0 1108 731.2;" xml:space="preserve">
<style type="text/css">
	.st0{fill:#F2F2F2;}
	.st1{fill:#3F3D56;}
	.st2{opacity:0.1;enable-background:new    ;}
	.st3{fill:none;stroke:#3F3D56;stroke-width:4;stroke-miterlimit:10;}
	.st4{fill:#61DAFB;}
	.st5{fill:#656380;}
	.st6{opacity:0.2;enable-background:new    ;}
	.st7{fill:#53C1DE;}
	.st8{fill:#FFFFFF;}
	.st9{fill:#A0616A;}
	.st10{opacity:3.000000e-02;enable-background:new    ;}
</style>
<title>react</title>
<path class="st0" d="M767.7,330.8l6.9-2.7c0.7-0.3,1.3-0.5,2-0.8c-31-11.4-46.9-45.8-35.5-76.8c8-21.7,27.7-36.8,50.8-38.9
	l-4.8,24.2l18.2-23.9h0.2c32.8,4.5,55.7,34.7,51.2,67.5c-0.2,1.1-0.4,2.2-0.6,3.3c5.6-4.4,10.9-9.3,14.8-15
	c8-11.5,10.7-25.8,13.5-43.2c5.5-34.5,10.4-69.3,14.8-104.2c-28.2-8.5-46-36.2-42-65.4c0.2-1.8,0.6-3.6,1-5.3
	c0.1-0.4,0.2-0.9,0.3-1.3c0.4-1.7,0.9-3.4,1.5-5c0.1-0.3,0.2-0.5,0.3-0.8c0.5-1.4,1-2.7,1.7-4c0.2-0.5,0.4-1,0.7-1.5
	c0.7-1.4,1.4-2.8,2.2-4.2c0.3-0.4,0.6-0.9,0.8-1.3c0.6-1,1.3-2,1.9-2.9c0.4-0.5,0.7-1,1.1-1.5l0.3-0.4l0,0
	c17.5-22.9,48.9-30.1,74.6-17l-6.2,31.5l18-23.6c19.9,16.8,26.5,44.6,16.3,68.6h0.1c-0.2,0.4-0.4,0.8-0.5,1.2
	c-0.3,0.7-0.7,1.5-1,2.2c-0.5,0.9-1,1.8-1.5,2.7c-0.4,0.7-0.8,1.4-1.2,2c-0.6,1-1.2,1.9-1.9,2.8c-0.4,0.5-0.7,1.1-1.1,1.6
	c-1,1.4-2.1,2.7-3.3,4c-0.4,0.4-0.8,0.9-1.2,1.3c-0.8,0.9-1.6,1.7-2.5,2.5c-0.5,0.5-1.1,1-1.6,1.5c-0.8,0.7-1.6,1.4-2.4,2
	c-0.6,0.5-1.2,0.9-1.8,1.4c-0.9,0.6-1.8,1.2-2.6,1.8c-0.6,0.4-1.2,0.8-1.8,1.1c-1,0.6-2,1.2-3.1,1.7c-0.5,0.3-1,0.6-1.6,0.8
	c-1.6,0.8-3.2,1.5-4.8,2.1c-0.3,0.1-0.6,0.2-1,0.3c-1.4,0.5-2.8,1-4.2,1.4c-0.6,0.2-1.2,0.3-1.8,0.5c-1.2,0.3-2.3,0.5-3.5,0.8
	c-0.7,0.1-1.4,0.2-2.1,0.3c-1.2,0.2-2.3,0.3-3.5,0.4c-0.7,0.1-1.4,0.1-2.1,0.2c-1.3,0.1-2.5,0.1-3.8,0.1c-0.1,0-0.2,0-0.2,0
	c-1.9,14.7-3.9,29.3-5.9,44c19.7-26.5,57.1-32.1,83.7-12.5c0.9,0.7,1.8,1.4,2.7,2.1L980.3,183l25.2-16.6
	c9.5,12.6,13.7,28.5,11.5,44.2c-0.7,5.5-2.3,10.9-4.5,15.9c-13.3,30.3-48.5,44.1-78.8,30.8c-15.1-6.6-26.9-19.2-32.4-34.8
	c-0.2,1.5-0.5,3-0.7,4.5c-2.4,15.4-5.5,34.5-16.2,50c-7.3,10.6-17.3,18.4-27.1,25.2c-6.3,4.5-12.8,8.7-19.5,12.8
	c-7,6.5-15.4,11.2-24.5,13.7c-10.7,5.5-21.6,10.4-32.7,14.8l-7,2.7c-6.2,2.4-12.7,4.9-19,7.6c1,0.1,2,0.2,3,0.3
	c25.8,3.5,46.4,23.4,50.9,49l-42.3,23.1l42.2-1.9c-1.7,9.4-5.6,18.2-11.4,25.7c-19.8,25.7-56.5,30.9-82.7,11.7l2.1,3.9
	c1.4,2.6,2.8,5.2,4.1,7.7c18.3,34.7,19.7,64.7,3.8,84.5l-13-10.5c15.5-19.2,3.2-49.8-5.5-66.3c-1.3-2.5-2.7-5-4-7.6
	c-11.8-21.8-25.1-46.6-19.8-72.9C690,361.1,733,344.3,767.7,330.8z"/>
<path class="st0" d="M269.6,519l-5.4-2.1c-0.5-0.2-1-0.4-1.5-0.6c24.2-8.9,36.6-35.8,27.7-60c-6.2-16.9-21.7-28.7-39.6-30.4
	l3.8,18.9l-14.2-18.7h-0.1c-25.6,3.5-43.5,27.1-40,52.7c0,0,0,0,0,0c0.1,0.9,0.3,1.7,0.5,2.6c-4.4-3.3-8.3-7.3-11.6-11.7
	c-6.2-9-8.4-20.1-10.5-33.7c-4.2-26.9-8.1-54.2-11.5-81.3c22-6.6,35.9-28.3,32.8-51c-0.2-1.4-0.5-2.8-0.8-4.2l-0.2-1
	c-0.3-1.3-0.7-2.6-1.1-3.9c-0.1-0.2-0.2-0.4-0.2-0.6c-0.4-1.1-0.8-2.1-1.3-3.1c-0.2-0.4-0.4-0.8-0.5-1.1c-0.5-1.1-1.1-2.2-1.7-3.3
	c-0.2-0.4-0.4-0.7-0.6-1c-0.5-0.8-1-1.5-1.5-2.3c-0.3-0.4-0.6-0.8-0.8-1.2l-0.2-0.3l0,0c-13.7-17.9-38.2-23.5-58.3-13.3l4.9,24.6
	l-14.1-18.5c-15.5,13.1-20.7,34.9-12.8,53.6h-0.1c0.1,0.3,0.3,0.6,0.4,0.9c0.3,0.6,0.5,1.1,0.8,1.7c0.4,0.7,0.7,1.4,1.1,2.1
	c0.3,0.5,0.6,1.1,0.9,1.6c0.5,0.8,1,1.5,1.5,2.2c0.3,0.4,0.6,0.9,0.9,1.3c0.8,1.1,1.6,2.1,2.5,3.1c0.3,0.4,0.6,0.7,1,1
	c0.6,0.7,1.3,1.3,1.9,2c0.4,0.4,0.9,0.8,1.3,1.1c0.6,0.6,1.2,1.1,1.9,1.6c0.5,0.4,0.9,0.7,1.4,1.1c0.7,0.5,1.4,1,2.1,1.4
	c0.5,0.3,0.9,0.6,1.4,0.9c0.8,0.5,1.6,0.9,2.4,1.3c0.4,0.2,0.8,0.5,1.2,0.7c1.2,0.6,2.5,1.1,3.8,1.6c0.2,0.1,0.5,0.2,0.7,0.2
	c1.1,0.4,2.2,0.8,3.3,1.1c0.5,0.1,1,0.2,1.4,0.4c0.9,0.2,1.8,0.4,2.7,0.6l1.6,0.3c0.9,0.1,1.8,0.2,2.7,0.3c0.5,0,1.1,0.1,1.6,0.1
	c1,0,2,0.1,3,0h0.2c1.5,11.5,3,23,4.6,34.4c-15.3-20.8-44.6-25.2-65.3-9.8c-0.7,0.5-1.5,1.1-2.2,1.7l12.1,20.6l-19.7-13
	c-7.5,9.8-10.7,22.3-9,34.5c0.6,4.3,1.8,8.5,3.5,12.5c10.4,23.6,37.9,34.4,61.6,24c11.8-5.2,21-15,25.3-27.2
	c0.2,1.2,0.4,2.3,0.5,3.5c1.9,12,4.3,26.9,12.7,39.1c5.7,8.2,13.5,14.3,21.2,19.7c5,3.5,10,6.8,15.2,10c5.4,5,12,8.7,19.2,10.7
	c8.3,4.3,16.8,8.1,25.5,11.6l5.4,2.1c4.9,1.9,9.9,3.8,14.8,5.9c-0.8,0.1-1.6,0.1-2.4,0.2c-20.2,2.8-36.2,18.2-39.7,38.3l33,18
	l-32.9-1.5c4.7,25.4,29.2,42.1,54.6,37.4c6.9-1.3,13.4-4.1,19-8.2c-0.5,1-1.1,2-1.6,3c-1.1,2-2.2,4-3.2,6
	c-14.3,27.1-15.4,50.6-2.9,66l10.1-8.2c-12.1-15-2.5-38.9,4.3-51.8c1-2,2.1-3.9,3.2-5.9c9.2-17,19.6-36.4,15.5-56.9
	C330.3,542.7,296.6,529.6,269.6,519z"/>
<ellipse class="st1" cx="554" cy="707.7" rx="554" ry="23.5"/>
<ellipse class="st2" cx="554" cy="707.7" rx="554" ry="23.5"/>
<ellipse class="st1" cx="554" cy="694.7" rx="554" ry="23.5"/>
<path class="st3" d="M85,686.3c-3-5.5,0.4-12.3,4.3-17.2s8.6-10,8.5-16.3c-0.1-9-9.7-14.3-17.3-19.1c-5.7-3.5-10.9-7.7-15.6-12.5
	c-2-1.8-3.6-4-4.8-6.4c-1.6-3.5-1.5-7.5-1.4-11.4c0.3-12.8,1-25.7,1.9-38.5"/>
<path class="st4" d="M46.1,564.3c0.2-4.8,2.9-9.1,7-11.5l3.1,6.2l-0.1-7.5c1.5-0.4,3.1-0.6,4.6-0.6c7.7,0.4,13.7,6.9,13.3,14.7
	s-6.9,13.7-14.7,13.3C51.7,578.5,45.8,572,46.1,564.3z"/>
<path class="st4" d="M71.1,659.3c3.5,6.9,11.9,9.7,18.8,6.2c4.6-2.3,7.5-6.9,7.7-12c0.1-1.9-0.2-3.9-0.9-5.7
	c-2.7-7.2-10.8-10.9-18-8.2c-3.8,1.4-6.8,4.5-8.2,8.3l8.8,7.1l-9.6-2.2C69.6,655.1,70.1,657.3,71.1,659.3z"/>
<path class="st4" d="M78.1,632c7.7,0.6,14.4-5.2,15-12.9c0.5-6.8-3.9-13-10.6-14.6l0.1,5.8l-3.2-6.3l0,0
	c-7.7-0.4-14.3,5.6-14.7,13.4S70.4,631.7,78.1,632L78.1,632z"/>
<path class="st4" d="M44,609.4c7.7,0.4,14.3-5.6,14.7-13.3c0.4-7.7-5.6-14.3-13.3-14.7l0,0c-2.6-0.1-5.2,0.5-7.5,1.8l2.5,6.8
	l-5.1-4.9c-2.7,2.5-4.4,6-4.5,9.7c-0.1,1.3,0.1,2.6,0.4,3.8C32.4,604.7,37.7,609.1,44,609.4z"/>
<path class="st2" d="M48,568c3.2,0.4,6.4,1.4,9.6,1.6s6.8-0.6,8.9-3.1c1.1-1.4,1.7-3.1,2.6-4.6c0.9-1.4,2.1-2.5,3.5-3.3
	c3.3,7,0.4,15.3-6.6,18.7c-7,3.3-15.3,0.4-18.7-6.6c-0.4-0.9-0.8-1.8-1-2.8C46.9,567.9,47.5,568,48,568z"/>
<path class="st2" d="M44,609.4c7.7,0.4,14.3-5.6,14.7-13.3c0.1-2.3-0.3-4.6-1.3-6.7c-1.1,0.8-2.1,1.7-2.8,2.8
	c-1,1.5-1.6,3.2-2.8,4.6c-2.2,2.6-5.9,3.4-9.3,3.2s-6.7-1.1-10-1.4c-0.5,0-0.9-0.1-1.4-0.1C32.5,604.7,37.8,609.1,44,609.4z"/>
<path class="st2" d="M78.1,632c7.7,0.4,14.3-5.5,14.7-13.3c0.1-2.2-0.3-4.5-1.2-6.5c-1.2,0.8-2.2,1.7-3,2.8c-1.1,1.5-1.8,3.3-3,4.7
	c-2.4,2.6-6.3,3.6-9.9,3.5s-6.8-0.9-10.3-1.2C67.1,627.8,72.2,631.8,78.1,632z"/>
<path class="st2" d="M71.1,659.3c3.5,6.9,11.9,9.7,18.8,6.2c4.6-2.3,7.5-6.9,7.7-12c0.1-1.9-0.2-3.9-0.9-5.7
	c-1.2,0.8-2.2,1.7-3.1,2.7c-1.3,1.6-2.2,3.5-3.8,5c-2.9,2.8-7.5,4-11.6,4.1C75.9,659.7,73.5,659.6,71.1,659.3z"/>
<path class="st5" d="M106.2,680c0,0-11.1-0.3-14.4-2.7s-17-5.2-17.9-1.4s-16.7,19-4.1,19.1s29.1-2,32.4-4S106.2,680,106.2,680z"/>
<path class="st6" d="M69.5,693.6c12.5,0.1,29.1-2,32.4-4c2.5-1.5,3.5-7.1,3.9-9.7h0.4c0,0-0.7,8.9-4,11s-19.9,4.1-32.4,4
	c-3.6,0-4.9-1.3-4.8-3.2C65.5,692.8,66.9,693.6,69.5,693.6z"/>
<path class="st3" d="M1055,695.3c-3-5.5,0.4-12.3,4.3-17.2s8.6-10,8.5-16.3c-0.1-9-9.7-14.3-17.3-19.1c-5.7-3.5-10.9-7.7-15.6-12.5
	c-2-1.8-3.6-4-4.8-6.4c-1.6-3.5-1.5-7.5-1.4-11.4c0.3-12.8,1-25.7,1.9-38.5"/>
<path class="st4" d="M1016.1,573.3c0.2-4.8,2.9-9.1,7-11.5l3.1,6.2l-0.1-7.5c1.5-0.4,3.1-0.6,4.6-0.6c7.7,0.4,13.7,7,13.3,14.7
	c-0.4,7.7-7,13.7-14.7,13.3C1021.7,587.5,1015.8,581,1016.1,573.3L1016.1,573.3z"/>
<path class="st4" d="M1041.1,668.3c3.5,6.9,11.9,9.7,18.8,6.2c4.6-2.3,7.5-6.9,7.7-12c0.1-1.9-0.2-3.9-0.9-5.7
	c-2.7-7.2-10.8-10.9-18-8.2c-3.8,1.4-6.8,4.5-8.2,8.3l8.8,7.1l-9.6-2.2C1039.6,664.1,1040.1,666.3,1041.1,668.3z"/>
<path class="st4" d="M1048.1,641c7.7,0.6,14.4-5.2,15-12.9c0.5-6.8-3.9-13-10.6-14.6l0.1,5.8l-3.2-6.3l0,0
	c-7.7-0.4-14.3,5.6-14.7,13.4C1034.4,634.1,1040.4,640.7,1048.1,641L1048.1,641z"/>
<path class="st4" d="M1014,618.4c7.7,0.4,14.3-5.6,14.7-13.3c0.4-7.7-5.6-14.3-13.3-14.7c-2.6-0.1-5.2,0.5-7.5,1.8l2.5,6.8l-5.1-4.9
	c-2.7,2.5-4.4,6-4.5,9.7c-0.1,1.3,0.1,2.6,0.4,3.8C1002.4,613.7,1007.7,618.1,1014,618.4z"/>
<path class="st2" d="M1018,577c3.2,0.4,6.4,1.4,9.6,1.6s6.8-0.6,8.9-3.1c1.1-1.4,1.7-3.1,2.6-4.6c0.9-1.4,2.1-2.5,3.5-3.3
	c3.3,7,0.4,15.3-6.6,18.7c-7,3.3-15.3,0.4-18.7-6.6c-0.4-0.9-0.8-1.8-1-2.8C1016.9,576.9,1017.5,577,1018,577z"/>
<path class="st2" d="M1014,618.4c7.7,0.4,14.3-5.6,14.7-13.3c0.1-2.3-0.3-4.6-1.3-6.7c-1.1,0.8-2.1,1.7-2.8,2.8
	c-1,1.5-1.6,3.2-2.8,4.6c-2.2,2.6-5.9,3.4-9.3,3.2s-6.7-1.1-10-1.4c-0.5,0-0.9-0.1-1.4-0.1C1002.5,613.7,1007.8,618.1,1014,618.4z"
	/>
<path class="st2" d="M1048.1,641c7.7,0.4,14.3-5.5,14.7-13.3c0.1-2.2-0.3-4.5-1.2-6.5c-1.2,0.8-2.2,1.7-3,2.8
	c-1.1,1.5-1.8,3.3-3,4.7c-2.4,2.6-6.3,3.6-9.9,3.5s-6.8-0.9-10.3-1.2C1037.1,636.8,1042.2,640.8,1048.1,641z"/>
<path class="st2" d="M1041.1,668.3c3.5,6.9,11.9,9.7,18.8,6.2c4.6-2.3,7.5-6.9,7.7-12c0.1-1.9-0.2-3.9-0.9-5.7
	c-1.2,0.8-2.2,1.7-3.1,2.7c-1.3,1.6-2.2,3.5-3.8,5c-2.9,2.8-7.5,4-11.6,4.1C1045.9,668.7,1043.5,668.6,1041.1,668.3z"/>
<path class="st5" d="M1076.2,689c0,0-11.1-0.3-14.4-2.7s-17-5.2-17.9-1.4s-16.7,19-4.1,19.1s29.1-2,32.4-4S1076.2,689,1076.2,689z"
	/>
<path class="st6" d="M1039.5,702.6c12.5,0.1,29.1-2,32.4-4c2.5-1.5,3.5-7.1,3.9-9.7h0.4c0,0-0.7,8.9-4,11s-19.9,4.1-32.4,4
	c-3.6,0-4.9-1.3-4.8-3.2C1035.5,701.8,1036.9,702.6,1039.5,702.6z"/>
<path class="st7" d="M745.6,331.2L745.6,331.2c-6.6-2.3-13.3-4.4-20-6.3c1.1-4.5,2.1-9.1,3.1-13.6c15.1-73.5,5.2-132.7-28.6-152.2
	c-32.4-18.7-85.4,0.8-139,47.4c-5.3,4.6-10.4,9.3-15.5,14.2c-3.4-3.2-6.8-6.4-10.3-9.5c-56.1-49.8-112.3-70.8-146.1-51.3
	c-32.4,18.8-42,74.4-28.3,144.1c1.3,6.9,2.9,13.8,4.6,20.6c-8,2.3-15.6,4.7-23,7.2c-65.8,22.9-107.8,58.9-107.8,96.2
	c0,38.5,45.1,77.1,113.6,100.6c5.6,1.9,11.2,3.6,16.8,5.3c-1.8,7.3-3.5,14.7-4.9,22.2c-13,68.5-2.8,122.8,29.5,141.5
	c33.4,19.3,89.4-0.5,143.9-48.2c4.3-3.8,8.6-7.8,13-12c5.4,5.3,11,10.4,16.8,15.3c52.8,45.5,105,63.8,137.3,45.1
	c33.3-19.3,44.2-77.7,30.1-148.7c-1.1-5.4-2.3-11-3.7-16.6c3.9-1.2,7.8-2.4,11.6-3.6c71.2-23.6,117.6-61.8,117.6-100.8
	C856.1,390.5,812.7,354.3,745.6,331.2z M578.5,226.4c45.9-39.9,88.8-55.7,108.3-44.4c20.8,12,28.9,60.4,15.8,123.9
	c-0.9,4.1-1.8,8.2-2.8,12.4c-27.4-6.2-55.1-10.6-83.1-13.1c-16-23-33.6-44.9-52.5-65.6C568.9,235,573.7,230.7,578.5,226.4z
	 M435.6,365.2c-6.1,10.6-12,21.3-17.5,32.1c-7.7-18.3-14.3-36.4-19.7-53.8c17.7-4,36.6-7.2,56.3-9.7
	C448.1,344.1,441.7,354.6,435.6,365.2L435.6,365.2z M418.2,459.7c5.6,10.9,11.5,21.6,17.6,32.2c6.2,10.8,12.7,21.4,19.5,31.9
	c-19.2-2.1-38.3-5.2-57.2-9.2C403.5,496.9,410.2,478.5,418.2,459.7z M432.2,428.5c8.2-17,17-33.7,26.4-50.1
	c9.4-16.4,19.5-32.4,30.1-48c18.5-1.4,37.4-2.1,56.6-2.1c19.2,0,38.2,0.7,56.7,2.1c10.5,15.6,20.5,31.5,30,47.8
	c9.5,16.3,18.4,32.9,26.8,49.9c-8.3,17.1-17.2,33.9-26.7,50.3l0,0c-9.4,16.3-19.4,32.4-29.8,48.1c-18.4,1.3-37.5,2-56.9,2
	c-19.4,0-38.1-0.6-56.3-1.8c-10.7-15.7-20.9-31.7-30.4-48.2C449.2,462.1,440.3,445.5,432.2,428.5z M655.1,491.7
	c6.2-10.8,12.2-21.8,18-32.9c7.9,17.8,14.9,36.1,20.9,54.7c-19.2,4.3-38.5,7.6-58,9.9C642.6,512.9,648.9,502.4,655.1,491.7z
	 M672.9,397.3c-5.7-10.9-11.7-21.7-17.9-32.3c-6.1-10.5-12.4-20.8-18.9-31.1c19.8,2.5,38.8,5.8,56.7,9.9
	C687,362,680.4,379.8,672.9,397.3z M545.6,258.5c12.9,14.1,25.1,28.8,36.6,44.1c-24.5-1.2-49-1.2-73.5,0
	C520.8,286.7,533.2,271.9,545.6,258.5z M402.5,182.8c20.8-12,66.8,5.1,115.2,48.1c3.1,2.8,6.2,5.6,9.3,8.6
	c-19.1,20.6-36.8,42.5-52.9,65.5c-27.9,2.5-55.6,6.8-82.9,12.9c-1.6-6.3-3-12.7-4.3-19.2v0C375.2,239.1,383,194.1,402.5,182.8z
	 M372.2,508.1c-5.2-1.5-10.3-3.1-15.3-4.8c-30.3-10.4-55.3-23.8-72.5-38.5c-15.4-13.2-23.2-26.3-23.2-36.9c0-22.6,33.7-51.5,90-71.1
	c7.1-2.5,14.2-4.7,21.4-6.7c8.4,26.8,18.5,53,30.3,78.5C390.9,454.3,380.6,480.9,372.2,508.1z M516,629.1
	c-24.1,21.1-48.3,36-69.6,43.5c-19.1,6.8-34.4,7-43.6,1.6c-19.6-11.3-27.8-55-16.6-113.5c1.3-6.9,2.8-13.8,4.5-20.6
	c27.6,5.9,55.6,10,83.8,12.1c16.3,23.1,34.1,45.1,53.4,65.9C524,622,520.1,625.6,516,629.1z M546.4,599.1
	c-12.6-13.5-25.1-28.5-37.4-44.7c11.9,0.5,24,0.7,36.4,0.7c12.7,0,25.2-0.3,37.5-0.8C571.5,569.8,559.3,584.8,546.4,599.1z
	 M707.6,636c-3.7,20-11.1,33.2-20.3,38.6c-19.6,11.3-61.5-3.4-106.6-42.3c-5.2-4.5-10.4-9.2-15.6-14.2c18.8-20.8,36.2-43,52.1-66.1
	c28.3-2.4,56.4-6.7,84.2-13c1.3,5.1,2.4,10.1,3.4,15l0,0.1C710.8,585.5,711.7,613.9,707.6,636z M730.1,503.5
	c-3.4,1.1-6.9,2.2-10.4,3.3c-8.7-26.9-19.2-53.2-31.5-78.7c11.8-25.2,21.9-51.1,30.2-77.6c6.3,1.8,12.5,3.8,18.5,5.8
	c57.5,19.8,92.6,49.1,92.6,71.6C829.5,451.9,791.6,483.1,730.1,503.5z"/>
<path class="st8" d="M546.4,599.1L546.4,599.1L546.4,599.1L546.4,599.1z"/>
<path class="st7" d="M545.3,372.4c30.7,0,55.5,24.8,55.5,55.5s-24.8,55.5-55.5,55.5s-55.5-24.8-55.5-55.5
	C489.8,397.2,514.7,372.4,545.3,372.4C545.3,372.4,545.3,372.4,545.3,372.4"/>
<path class="st1" d="M559.3,20.4c0,9.2-7.4,16.6-16.6,16.6c-9.2,0-16.6-7.4-16.6-16.6s7.4-16.6,16.6-16.6l0,0
	c9.1,0,16.6,7.3,16.6,16.4C559.3,20.3,559.3,20.3,559.3,20.4z"/>
<path class="st1" d="M529.4,24.6c-4.4-8-1.5-18.1,6.5-22.6c1.9-1,3.9-1.7,6-2c-9.2-0.3-16.8,6.8-17.2,16s6.8,16.8,16,17.2
	c0.9,0,1.7,0,2.6-0.1C537.5,32.9,532.2,29.7,529.4,24.6z"/>
<rect x="521.9" y="43.5" class="st1" width="44.5" height="69.4"/>
<rect x="521.9" y="43.5" class="st2" width="44.5" height="69.4"/>
<path class="st9" d="M451.7,295.2c0,0-4.8,13-16,14.8s-17.8,4.7-17.8,4.7l26.7,17.2l14.2-1.8c0,0,1.8-18.4,7.7-22.5
	S451.7,295.2,451.7,295.2z"/>
<path class="st9" d="M644.3,295.2c0,0,4.8,13,16,14.8s17.8,4.7,17.8,4.7L651.5,332l-14.2-1.8c0,0-1.8-18.4-7.7-22.5
	S644.3,295.2,644.3,295.2z"/>
<path class="st1" d="M514.5,180.2c0,0-7.1,3.6-9.5,10.7c0,0-13,4.1-20.2,15.4c0,0-8.9,9.5-10.1,14.2S460,253.7,460,253.7
	s-13.6,44.5-20.8,49.2c0,0,22.5-4.7,26.7,17.8c0,0,5.3,0,11.3-20.8s20.2-46.3,20.2-46.3s4.7-17.8,8.9-20.8s10.7-16.6,16.6-13
	s45.1-0.6,45.1-0.6s23.1,10.6,23.7,17.8s4.7,7.7,5.3,13.6c0.6,5.9,22.5,52.8,22.5,52.8s4.2,13,5.3,16c0,0,13-31.4,30.2-13.6
	c0,0-0.6-11.9-5.9-19S620.6,224,620.6,224s-2.4-8.3-4.7-10.7S595.1,192,588.6,192c0,0-3.5-8.9-7.7-10.1L514.5,180.2z"/>
<path class="st1" d="M461.1,326c-9.4,3.8-20.1,2.3-28.2-3.8c-3.9-3-8.1-5.4-12.6-7.3c-6.3-2.5-13.8-4.4-16.1-0.2
	c-4.1,7.7,50.4,26.7,50.4,26.7S461.7,337.3,461.1,326z"/>
<path class="st1" d="M634.9,326c9.4,3.8,20.1,2.3,28.2-3.8c3.9-3,8.1-5.4,12.6-7.3c6.3-2.5,13.8-4.4,16.1-0.2
	c4.2,7.7-50.4,26.7-50.4,26.7S634.3,337.3,634.9,326z"/>
<path class="st9" d="M533.9,82.7c-0.2,2.1-0.9,4.3-2.7,5.4c-1.4,0.9-3.3,0.8-4.9,1.2c-3.5,0.9-6.4,3.4-7.8,6.8
	c-1.3,3.4-1.6,7-0.8,10.6c0.4,1.7,0.9,3.4,1.5,5.1c1.7,4.9,3.8,9.8,7.1,13.9c2.8,3.3,5.9,6.2,9.3,8.8c2.1,1.7,4.3,3.5,6.9,4.3
	c1.8,0.5,3.6,0.7,5.4,0.7c2.2,0.1,4.7,0.2,6.6-0.9c3-1.7,3.9-5.6,5.5-8.6c1.4-2.6,3.4-4.8,4.7-7.5c0.9-2.1,1.6-4.3,2-6.5l2.8-12.3
	c1-4.5,1.9-9.5-0.6-13.3c-0.2-0.3-0.4-0.6-0.7-0.8c-0.5-0.2-1-0.2-1.5-0.1c-3.2,0.2-6.4-0.5-9.2-2.1c-0.4-0.2-0.8-0.5-1.2-0.9
	c-0.4-0.6-0.6-1.4-0.7-2.1c-0.3-1.5-0.7-3-1.3-4.4c-0.2-0.5-0.5-1-0.9-1.3c-0.4-0.3-0.9-0.4-1.4-0.5c-4.3-0.7-8.6-1.1-12.9-1.4
	c-1.4-0.1-3.6-0.6-4.5,0.6S534,81.2,533.9,82.7z"/>
<path class="st2" d="M533.9,82.7c-0.2,2.1-0.9,4.3-2.7,5.4c-1.4,0.9-3.3,0.8-4.9,1.2c-3.5,0.9-6.4,3.4-7.8,6.8
	c-1.3,3.4-1.6,7-0.8,10.6c0.4,1.7,0.9,3.4,1.5,5.1c1.7,4.9,3.8,9.8,7.1,13.9c2.8,3.3,5.9,6.2,9.3,8.8c2.1,1.7,4.3,3.5,6.9,4.3
	c1.8,0.5,3.6,0.7,5.4,0.7c2.2,0.1,4.7,0.2,6.6-0.9c3-1.7,3.9-5.6,5.5-8.6c1.4-2.6,3.4-4.8,4.7-7.5c0.9-2.1,1.6-4.3,2-6.5l2.8-12.3
	c1-4.5,1.9-9.5-0.6-13.3c-0.2-0.3-0.4-0.6-0.7-0.8c-0.5-0.2-1-0.2-1.5-0.1c-3.2,0.2-6.4-0.5-9.2-2.1c-0.4-0.2-0.8-0.5-1.2-0.9
	c-0.4-0.6-0.6-1.4-0.7-2.1c-0.3-1.5-0.7-3-1.3-4.4c-0.2-0.5-0.5-1-0.9-1.3c-0.4-0.3-0.9-0.4-1.4-0.5c-4.3-0.7-8.6-1.1-12.9-1.4
	c-1.4-0.1-3.6-0.6-4.5,0.6S534,81.2,533.9,82.7z"/>
<path class="st4" d="M525.8,89.7c-2.3-0.7-4.7-1.1-7.1-1.1c-5.7-0.1-11.8,1.8-15.1,6.5c-2.2,3.4-3.1,7.5-2.3,11.5
	c0.8,3.9,2.6,7.6,5.2,10.7c1.5,1.6,2.9,3.4,4,5.2c1.6,3,1.6,6.6,2.1,10c1,8.1,4.5,15.8,5.8,23.8s0.2,17.4-6.2,22.5
	c-1.1,0.9-2.4,1.8-2.5,3.1c-0.1,2.2,2.7,3.1,4.9,3.3c6.5,0.6,13.3,1.2,19.6-0.5c2.6-0.7,5.2-1.8,7.8-2.3c6.8-1.3,13.6,1.3,20.5,2.6
	c4.9,0.8,9.9,1.2,14.9,1.2c1.2,0.1,2.3,0,3.4-0.5c1.1-0.4,1.8-1.5,1.7-2.7c-0.2-0.8-0.6-1.4-1.2-2c-3.4-4.2-4.5-9.9-5.4-15.3
	l-3.2-18.1c-1.7-9.7-3.3-20.2,1.3-28.9c3.3-6.2,9.4-10.6,12.8-16.8c1.2-1.9,1.8-4.1,1.5-6.3c-0.5-3.1-3.3-5.3-6.2-6.6
	c-5.5-2.5-11.8-2.7-17.4-0.6c0.1,4.3-1,8.7-1.7,13l-1.2,7c-0.6,4.1-1.5,8.2-2.7,12.2c-0.4,1.6-1.2,3.1-2.2,4.4
	c-1.1,1.2-2.4,2.1-3.8,2.8c-3.2,1.5-6.6,2.3-10.1,2.3c-1.5,0-3-0.2-4.5-0.7c-2.3-1-4.4-2.5-6.2-4.3c-0.6-0.5-1.2-1.1-1.6-1.8
	c-0.5-0.8-0.9-1.7-1.1-2.7c-0.8-2.4-1.4-4.9-1.9-7.5c-0.3-1.9-0.4-3.9-0.5-5.9C527,101.7,527,95.3,525.8,89.7z"/>
<path class="st9" d="M519.8,204.5c0,0-2.4,31.4,12.5,36.8s1.8-26.1,1.8-26.1l-4.8-9.5L519.8,204.5z"/>
<path class="st9" d="M570.2,204.5c0,0,2.4,31.4-12.5,36.8s-1.8-26.1-1.8-26.1l4.8-9.5L570.2,204.5z"/>
<path class="st2" d="M506.8,99.6l-4.7,7.7c0,0,4.2,26.7,4.7,31.4c0.5,3.4,1.3,6.8,2.4,10.1c0,0,0.6,14.2,0.6,19.6s3,14.2,3,14.2
	c0.4,5,1.4,10,3,14.8c2.4,6.5,4.7,14.2,4.7,14.2s3-8.3,14.8,4.1c2.8-2.8,2.8-7.3,0-10.1c0,0-3.5-16-3.5-24.3s-6.5-48-6.5-48
	S521,88.3,506.8,99.6z"/>
<path class="st4" d="M505.6,99l-4.7,7.7c0,0,4.2,26.7,4.7,31.4c0.5,3.4,1.3,6.8,2.4,10.1c0,0,0.6,14.2,0.6,19.6s3,14.2,3,14.2
	c0.4,5,1.4,10,3,14.8c2.4,6.5,4.8,14.2,4.8,14.2s3-8.3,14.8,4.1c2.7-2.8,2.7-7.3,0-10.1c0,0-3.6-16-3.6-24.3s-6.5-48-6.5-48
	S519.8,87.7,505.6,99z"/>
<path class="st2" d="M583.9,94.8l3,3.5c0,0,3.5,20.2-4.2,45.7l-2.4,23.1c0,0-4.2,19.6-4.7,24.3s-0.6,5.3-1.8,7.1
	c-0.7,0.9-0.7,2.1,0,3l-3.6,13c0,0-5.3-6.5-16,1.8c0,0-3-4.7-0.6-8.9s2.4-5.9,1.8-7.1s2.4-7.1,2.4-8.3s4.2-28.4,4.2-28.4
	s1.8-26.7,3.6-35.6c1.1-5.5,1.1-17.7,0.9-26.2c-0.2-8.9,10.6-13.8,17-7.5C583.5,94.4,583.7,94.6,583.9,94.8z"/>
<path class="st4" d="M585.7,93.6l3,3.5c0,0,3.5,20.2-4.2,45.7l-2.4,23.1c0,0-4.2,19.6-4.7,24.3s-0.6,5.3-1.8,7.1
	c-0.8,0.9-0.8,2.1,0,3l-3.5,13c0,0-5.3-6.5-16,1.8c0,0-3-4.7-0.6-8.9s2.4-5.9,1.8-7.1s2.4-7.1,2.4-8.3s4.2-28.5,4.2-28.5
	s1.8-26.7,3.6-35.6s0.6-35.6,0.6-35.6S577.3,84.7,585.7,93.6z"/>
<circle class="st9" cx="545.9" cy="61.6" r="23.7"/>
<path class="st2" d="M558.3,26c-3.1,8.6-12.6,13.1-21.2,10c-4.5-1.6-8.1-5.1-9.9-9.6c9.3-3.7,18.7-0.4,18.7-0.4
	C550.7,24.4,554.8,24.5,558.3,26z"/>
<path class="st1" d="M545.9,27.2c0,0-45.7-16-34.4,61.7c0,0,10.1,6.5,17.8,2.4c0,0-5.3-53.9,15.4-51.6s17.2,50.4,17.2,50.4
	s11.9,3.6,15.4-3S576.2,16.6,545.9,27.2z"/>
<path class="st2" d="M544.7,36.1c-14.2-1.6-16.2,23.3-16,39c0.2-15.7,2.8-37,16-35.5c14.8,1.7,17.2,26.7,17.4,40.8
	C562.3,67.5,560.9,38,544.7,36.1z"/>
<path class="st2" d="M511.5,85.3c-1-6.8-1.6-13.7-1.8-20.5c0,8.1,0.5,16.1,1.8,24.1c0,0,10.1,6.5,17.8,2.4c0,0-0.1-1.3-0.3-3.4
	C521.4,91.7,511.5,85.3,511.5,85.3z"/>
<path class="st2" d="M577.3,83.6c-3.3,6.1-13.8,3.4-15.2,3c-0.1,2.2-0.2,3.5-0.2,3.5s11.9,3.6,15.4-3c0.7-1.3,1.1-5.1,1-10.2
	C578.2,80.2,577.9,82.6,577.3,83.6z"/>
<path class="st3" d="M826.7,673c4.7-8.8-0.6-19.5-6.8-27.4s-13.7-16-13.6-26c0.2-14.3,15.5-22.8,27.6-30.4
	c9-5.6,17.3-12.3,24.8-19.9c3-3,5.9-6.3,7.6-10.2c2.5-5.6,2.5-12,2.3-18.1c-0.5-20.5-1.5-40.9-3-61.3"/>
<path class="st4" d="M888.7,478.5c-0.3-7.6-4.6-14.5-11.2-18.3l-5,9.9l0.2-12c-11.8-3.5-24.3,3.3-27.8,15.1
	c-3.5,11.8,3.3,24.3,15.1,27.8c11.8,3.5,24.3-3.3,27.8-15.1C888.5,483.5,888.8,481,888.7,478.5L888.7,478.5z"/>
<path class="st4" d="M848.9,629.9c-5.6,11-19.1,15.3-30.1,9.7s-15.3-19.1-9.7-30.1s19.1-15.3,30.1-9.7c5,2.6,8.8,6.9,10.7,12.1
	l-14,11.4l15.4-3.6C851.3,623.2,850.5,626.7,848.9,629.9z"/>
<path class="st4" d="M837.8,586.4c-12.3,0.5-22.8-9.1-23.3-21.4c-0.4-10.3,6.3-19.6,16.2-22.5l-0.1,9.2l5.1-10h0.1
	c12.3-0.7,22.9,8.8,23.5,21.1c0.7,12.3-8.8,22.9-21.1,23.5C838,586.5,837.9,586.5,837.8,586.4L837.8,586.4z"/>
<path class="st4" d="M892.1,550.3c-12.3,0.6-22.8-9-23.4-21.3c-0.6-12.3,9-22.8,21.3-23.4c4.2-0.2,8.3,0.8,12,2.8l-4,10.8l8.1-7.8
	c9.1,8.4,9.7,22.5,1.4,31.6C903.5,547.4,898,550,892.1,550.3L892.1,550.3z"/>
<path class="st2" d="M885.7,484.4c-5.2,0.6-10.2,2.2-15.4,2.5s-10.9-0.9-14.1-5c-1.8-2.2-2.7-4.9-4.1-7.3c-1.4-2.2-3.3-4-5.6-5.3
	c-5.6,11-1.2,24.5,9.8,30.1c11,5.6,24.5,1.2,30.1-9.8c0.9-1.7,1.5-3.6,1.9-5.4C887.4,484.3,886.6,484.4,885.7,484.4z"/>
<path class="st2" d="M892.1,550.3c-12.4,0.6-22.8-9-23.4-21.3c-0.2-3.6,0.6-7.3,2.1-10.6c1.8,1.2,3.3,2.7,4.5,4.5
	c1.6,2.4,2.6,5.2,4.4,7.4c3.5,4.1,9.4,5.4,14.8,5.2s10.6-1.8,16-2.3c0.8-0.1,1.5-0.1,2.3-0.1C910.6,542.8,902.1,549.9,892.1,550.3z"
	/>
<path class="st2" d="M837.8,586.4c-12.3,0.6-22.8-9-23.4-21.3c-0.2-3.5,0.5-7,1.9-10.2c1.8,1.2,3.4,2.8,4.7,4.5
	c1.7,2.5,2.8,5.3,4.9,7.5c3.8,4.2,10.1,5.7,15.8,5.5c5.5-0.1,10.9-1.5,16.4-1.9C855.4,579.7,847.2,586,837.8,586.4z"/>
<path class="st2" d="M848.9,629.9c-5.6,11-19,15.5-30,9.9c-10.3-5.2-15-17.4-10.7-28.2c1.8,1.2,3.5,2.7,4.9,4.4
	c2.1,2.6,3.5,5.5,6,7.9c4.6,4.5,12,6.3,18.5,6.5C841.3,630.5,845.1,630.3,848.9,629.9z"/>
<path class="st5" d="M793,662.8c0,0,17.7-0.5,23-4.3s27.2-8.3,28.5-2.2s26.5,30.2,6.6,30.4s-46.3-3.1-51.6-6.3S793,662.8,793,662.8z
	"/>
<path class="st6" d="M851.4,684.6c-19.9,0.2-46.3-3.1-51.6-6.3c-4-2.5-5.7-11.3-6.2-15.4H793c0,0,1.1,14.2,6.4,17.5
	s31.7,6.5,51.6,6.3c5.8,0,7.7-2.1,7.6-5.1C857.9,683.4,855.7,684.5,851.4,684.6z"/>
<path class="st0" d="M323,42.9l-18.2,11.6l11.1-20.2c-3.1-2.5-7-3.9-11-3.9h-0.3c-1.3,0-2.5-0.1-3.8-0.3l-6.2,3.9l2.6-4.8
	c-4.4-1.5-8.2-4.4-10.8-8.2l-11.1,7l7-12.7c-6.5-7.8-15.2-12.5-24.8-12.5c-11.5,0-21.8,6.8-28.4,17.5c-4,6.5-11.1,10.4-18.8,10.1
	h-0.6c-12.7,0-23,14.4-23,32.2s10.3,32.2,23,32.2c2.8,0,5.5-0.7,8-2c8.3-4.3,19.2-4.4,27.9-0.5c7.5,3.4,16.1,3.4,23.7,0.1
	c8.6-3.8,19.4-3.7,27.6,0.5c2.4,1.3,5.2,2,7.9,2c12.7,0,23-14.4,23-32.2C327.9,55.7,326.2,48.9,323,42.9z"/>
<path class="st10" d="M288.6,89.9c-6.6-1.3-13.5-0.5-19.7,2.1c-7.5,3.4-16.1,3.3-23.7-0.1c-8.7-3.9-19.6-3.8-27.9,0.5
	c-2.5,1.3-5.2,2-8,2c-11.3,0-20.7-11.4-22.6-26.4c2.3-1.6,4.2-3.7,5.6-6.1c6.7-10.7,16.9-17.5,28.4-17.5c11.5,0,21.6,6.8,28.3,17.3
	c4,6.5,11.1,10.4,18.8,10.3h0.3C277,72.2,284.8,79.4,288.6,89.9z"/>
<path class="st0" d="M800.1,66.4l-9.1,5.8l5.5-10c-1.6-1.3-3.5-2-5.5-2h-0.1c-0.6,0-1.3,0-1.9-0.1l-3.1,2l1.3-2.5
	c-2.2-0.8-4.1-2.2-5.4-4.1l-5.5,3.5l3.5-6.3c-3-3.8-7.5-6.1-12.4-6.3c-5.8,0-10.9,3.4-14.2,8.7c-2,3.2-5.6,5.1-9.4,5h-0.3
	c-6.3,0-11.5,7.2-11.5,16s5.1,16.1,11.5,16.1c1.4,0,2.8-0.3,4-1c4.4-2.1,9.4-2.2,13.9-0.3c3.8,1.7,8.1,1.7,11.8,0
	c4.4-1.9,9.4-1.8,13.8,0.3c1.2,0.7,2.6,1,4,1c6.3,0,11.5-7.2,11.5-16.1C802.5,72.7,801.7,69.4,800.1,66.4z"/>
<path class="st10" d="M782.9,89.9c-3.3-0.6-6.7-0.3-9.8,1.1c-3.8,1.7-8.1,1.7-11.8,0c-4.4-2-9.5-1.9-13.9,0.3c-1.2,0.7-2.6,1-4,1
	c-5.6,0-10.3-5.7-11.3-13.1c1.1-0.8,2.1-1.8,2.8-3c3.3-5.3,8.4-8.7,14.2-8.7s10.8,3.4,14.1,8.6c2,3.2,5.6,5.2,9.4,5.1h0.2
	C777.2,81.1,781,84.7,782.9,89.9z"/>
<path class="st0" d="M204.3,215.9l14.7,9.3l-8.9-16.1c2.5-2,5.6-3.1,8.9-3.1h0.2c1,0,2-0.1,3-0.2l5,3.1l-2.2-3.9
	c3.5-1.2,6.5-3.5,8.7-6.6l8.9,5.6l-5.5-10.2c5.2-6.2,12.2-10,19.9-10c9.2,0,17.4,5.5,22.8,14c3.2,5.2,8.9,8.3,15,8.1h0.5
	c10.2,0,18.4,11.5,18.4,25.8s-8.2,25.8-18.4,25.8c-2.2,0-4.4-0.6-6.4-1.6c-7-3.4-15.2-3.6-22.3-0.4c-6,2.7-13,2.7-19,0
	c-7.1-3.1-15.2-2.9-22.1,0.4c-2,1-4.1,1.6-6.4,1.6c-10.2,0-18.4-11.5-18.4-25.8C200.4,226.1,201.8,220.7,204.3,215.9z"/>
<path class="st10" d="M231.9,253.6c5.3-1,10.8-0.4,15.8,1.7c6,2.7,13,2.7,19,0c7.1-3.1,15.3-3,22.3,0.4c2,1,4.2,1.6,6.4,1.6
	c9,0,16.6-9.1,18.1-21.1c-1.8-1.3-3.3-3-4.5-4.9c-5.3-8.5-13.5-14-22.8-14s-17.3,5.4-22.6,13.9c-3.2,5.2-8.9,8.3-15,8.2h-0.2
	C241.2,239.4,234.9,245.2,231.9,253.6z"/>
</svg>
